<svg preserveAspectRatio="none" width="100%" height="100%" overflow="visible" style="display: block;" viewBox="0 0 6.73599 7.66577" fill="none" xmlns="http://www.w3.org/2000/svg">
<path id="Vector" fill-rule="evenodd" clip-rule="evenodd" d="M3.50698 0.0727895C3.47858 0.029718 3.53079 -0.0207187 3.57316 0.00885625L5.34695 1.24693C6.4649 2.02724 6.97966 3.42047 6.62522 4.73343C6.59714 4.83744 6.56702 4.92849 6.53872 5.00477C6.52118 5.05207 6.45143 5.04186 6.44791 4.99156C6.41801 4.56405 6.10931 4.07529 5.88525 3.72055C5.84525 3.65723 5.80795 3.59818 5.77542 3.5445C5.55765 3.18525 3.98121 0.792061 3.50698 0.0727895ZM1.15832 3.55493L3.28149 0.0712682C3.30614 0.0308304 3.26179 -0.0163376 3.21968 0.00555477C2.84851 0.198515 1.84701 0.756816 1.06073 1.53987C0.199058 2.39801 0.895416 3.33953 1.08233 3.56084C1.10298 3.58529 1.14167 3.58225 1.15832 3.55493ZM3.22901 7.59298C3.25741 7.63605 3.2052 7.68649 3.16283 7.65692L1.38904 6.41884C0.271085 5.63853 -0.243675 4.2453 0.110768 2.93234C0.138845 2.82833 0.16897 2.73728 0.197266 2.661C0.214811 2.6137 0.284558 2.62391 0.288076 2.67421C0.31798 3.10172 0.626682 3.59047 0.85074 3.94522L0.850755 3.94524L0.850795 3.9453C0.890771 4.0086 0.92805 4.06762 0.96057 4.12127C1.17834 4.48052 2.75478 6.87371 3.22901 7.59298ZM3.45466 7.59413L5.57784 4.11047C5.59449 4.08315 5.63318 4.08011 5.65383 4.10456C5.84075 4.32587 6.5371 5.26739 5.67543 6.12553C4.88915 6.90859 3.88766 7.46689 3.51649 7.65985C3.47438 7.68174 3.43002 7.63457 3.45466 7.59413Z" fill="#FEEAF0"/>
</svg>
