<svg width="22" height="24" viewBox="0 0 22 24" fill="none" xmlns="http://www.w3.org/2000/svg">
  <path d="M10.241 0.223131L3.61237 11.13C3.56039 11.2155 3.43961 11.2251 3.37512 11.1485C2.79157 10.4556 0.617526 7.50784 3.30768 4.82112C5.76246 2.36949 8.88917 0.621524 10.048 0.0173912C10.1794 -0.0511506 10.3179 0.0965256 10.241 0.223131Z" fill="#011A25" />
  <path d="M9.87442 23.9705C10.0067 24.063 10.1697 23.9051 10.081 23.7703C8.60048 21.5183 3.67879 14.0256 2.99892 12.9008C2.32834 11.7914 1.00941 9.94771 0.899379 8.3703C0.888398 8.21283 0.670646 8.18086 0.615869 8.32894C0.527528 8.56778 0.433476 8.85283 0.345821 9.17848C-0.760758 13.2892 0.846333 17.6512 4.3366 20.0942L9.87442 23.9705V23.9705Z" fill="#011A25" />
  <path d="M10.7858 23.7772L17.4144 12.8703C17.4664 12.7848 17.5871 12.7752 17.6516 12.8518C18.2352 13.5447 20.4092 16.4924 17.7191 19.1792C15.2643 21.6308 12.1376 23.3788 10.9788 23.9829C10.8473 24.0514 10.7088 23.9038 10.7858 23.7772Z" fill="#011A25" />
  <path d="M11.1596 0.0277277C11.0273 -0.0648673 10.8643 0.0930428 10.953 0.227894C12.4336 2.47983 17.3552 9.97258 18.0351 11.0973C18.7057 12.2068 20.0246 14.0505 20.1347 15.6279C20.1456 15.7854 20.3634 15.8173 20.4182 15.6692C20.5065 15.4304 20.6006 15.1453 20.6882 14.8197C21.7948 10.709 20.1877 6.34702 16.6974 3.90397L11.1596 0.0277277Z" fill="#011A25" />
</svg>