<svg viewBox="0 0 110 110" fill="none" xmlns="http://www.w3.org/2000/svg">
  <rect x="0" y="0" width="110" height="110" fill="#FAF9F6" />
  <rect x="12.6294" y="14.5354" width="7.10645" height="10.2308" rx="0.487179" fill="#373737" />
  <rect x="23.6631" y="14.5354" width="7.10645" height="10.2308" rx="0.487179" fill="#373737" />
  <rect x="34.6938" y="14.5354" width="7.10645" height="10.2308" rx="0.487179" fill="#373737" />
  <rect x="67.79" y="23.9652" width="7.10645" height="10.2308" rx="0.487179" fill="#373737" />
  <rect x="45.7271" y="14.5354" width="7.10645" height="10.2308" rx="0.487179" fill="#373737" />
  <rect x="78.8228" y="23.9655" width="7.10645" height="10.2308" rx="0.487179" fill="#373737" />
  <rect x="67.79" y="14.5354" width="7.10645" height="10.2308" rx="0.487179" fill="#373737" />
  <rect x="78.8228" y="14.5354" width="7.10645" height="10.2308" rx="0.487179" fill="#373737" />
  <rect x="89.8545" y="23.9655" width="7.10645" height="10.2308" rx="0.487179" fill="#373737" />
  <rect x="12.6294" y="23.9652" width="7.10645" height="10.2308" rx="0.487179" fill="#373737" />
  <rect x="23.6631" y="23.9655" width="7.10645" height="10.2308" rx="0.487179" fill="#373737" />
  <rect x="34.6938" y="23.9655" width="7.10645" height="10.2308" rx="0.487179" fill="#373737" />
  <rect x="45.7271" y="23.9655" width="7.10645" height="10.2308" rx="0.487179" fill="#373737" />
  <rect x="12.6294" y="33.3922" width="7.10645" height="10.2308" rx="0.487179" fill="#373737" />
  <rect x="56.7583" y="33.3922" width="7.10645" height="10.2308" rx="0.487179" fill="#373737" />
  <rect x="67.79" y="33.3922" width="7.10645" height="10.2308" rx="0.487179" fill="#373737" />
  <rect x="78.8228" y="33.3923" width="7.10645" height="10.2308" rx="0.487179" fill="#373737" />
  <rect x="89.8545" y="33.3923" width="7.10645" height="10.2308" rx="0.487179" fill="#373737" />
  <rect x="12.6294" y="42.8221" width="7.10645" height="10.2308" rx="0.487179" fill="#373737" />
  <rect x="23.6631" y="42.8223" width="7.10645" height="10.2308" rx="0.487179" fill="#373737" />
  <rect x="56.7583" y="42.8221" width="7.10645" height="10.2308" rx="0.487179" fill="#373737" />
  <rect x="67.79" y="42.8221" width="7.10645" height="10.2308" rx="0.487179" fill="#373737" />
  <rect x="78.8228" y="42.8223" width="7.10645" height="10.2308" rx="0.487179" fill="#373737" />
  <rect x="89.8545" y="42.8223" width="7.10645" height="10.2308" rx="0.487179" fill="#373737" />
  <rect x="12.6294" y="52.2526" width="7.10645" height="10.2308" rx="0.487179" fill="#373737" />
  <rect x="23.6631" y="52.2528" width="7.10645" height="10.2308" rx="0.487179" fill="#373737" />
  <rect x="34.6938" y="52.2528" width="7.10645" height="10.2308" rx="0.487179" fill="#373737" />
  <rect x="56.7583" y="52.2528" width="7.10645" height="10.2308" rx="0.487179" fill="#373737" />
  <rect x="67.79" y="52.2526" width="7.10645" height="10.2308" rx="0.487179" fill="#373737" />
  <rect x="89.8545" y="52.2528" width="7.10645" height="10.2308" rx="0.487179" fill="#373737" />
  <rect x="12.6294" y="61.6858" width="7.10645" height="10.2308" rx="0.487179" fill="#373737" />
  <rect x="23.6631" y="61.6859" width="7.10645" height="10.2308" rx="0.487179" fill="#373737" />
  <rect x="34.6938" y="61.6859" width="7.10645" height="10.2308" rx="0.487179" fill="#373737" />
  <rect x="45.7271" y="61.6859" width="7.10645" height="10.2308" rx="0.487179" fill="#373737" />
  <rect x="78.8228" y="61.6859" width="7.10645" height="10.2308" rx="0.487179" fill="#373737" />
  <rect x="89.8545" y="61.6859" width="7.10645" height="10.2308" rx="0.487179" fill="#373737" />
  <rect x="34.6938" y="71.1165" width="7.10645" height="10.2308" rx="0.487179" fill="#373737" />
  <rect x="67.79" y="71.1165" width="7.10645" height="10.2308" rx="0.487179" fill="#373737" />
  <rect x="78.8228" y="71.1165" width="7.10645" height="10.2308" rx="0.487179" fill="#373737" />
  <rect x="23.6631" y="80.5431" width="7.10645" height="10.2308" rx="0.487179" fill="#373737" />
  <rect x="34.6938" y="80.5432" width="7.10645" height="10.2308" rx="0.487179" fill="#373737" />
  <rect x="45.7271" y="80.5431" width="7.10645" height="10.2308" rx="0.487179" fill="#373737" />
  <rect x="56.7583" y="80.5433" width="7.10645" height="10.2308" rx="0.487179" fill="#373737" />
  <rect x="89.8545" y="80.5432" width="7.10645" height="10.2308" rx="0.487179" fill="#373737" />
  <rect x="12.6294" y="89.9762" width="7.10645" height="10.2308" rx="0.487179" fill="#373737" />
</svg>